HIERARCHY
ROOT Pelvis
{
	OFFSET 0.000000 0.000000 0.000000
	CHANNELS 6 Xposition Yposition Zposition Xrotation Yrotation Zrotation
	JOINT LeftUpLeg_virtual
	{
		OFFSET 0.000000 0.000000 0.000000
		CHANNELS 3 Xrotation Yrotation Zrotation
		JOINT LeftUpLeg
		{
			OFFSET 18.735201 -5.666702 -4.541200
			CHANNELS 3 Xrotation Yrotation Zrotation
			JOINT LeftLeg
			{
				OFFSET -0.021200 -31.938179 0.493100
				CHANNELS 3 Xrotation Yrotation Zrotation
				JOINT LeftFoot
				{
					OFFSET 0.021200 -31.938179 -4.336299
					CHANNELS 3 Xrotation Yrotation Zrotation
					JOINT LeftToeBase
					{
						OFFSET 0.943001 -26.722000 15.023500
						CHANNELS 3 Xrotation Yrotation Zrotation
						End Site
						{
							OFFSET 0 0 0
						}
					}
				}
			}
		}
	}
	JOINT RightUpLeg_virtual
	{
		OFFSET 0.000000 0.000000 0.000000
		CHANNELS 3 Xrotation Yrotation Zrotation
		JOINT RightUpLeg
		{
			OFFSET -18.735201 -5.666702 -4.541200
			CHANNELS 3 Xrotation Yrotation Zrotation
			JOINT RightLeg
			{
				OFFSET 0.018946 -31.938133 0.493100
				CHANNELS 3 Xrotation Yrotation Zrotation
				JOINT RightFoot
				{
					OFFSET -0.018946 -31.938126 -4.336299
					CHANNELS 3 Xrotation Yrotation Zrotation
					JOINT RightToeBase
					{
						OFFSET -0.943001 -26.722004 15.023500
						CHANNELS 3 Xrotation Yrotation Zrotation
						End Site
						{
							OFFSET 0 0 0
						}
					}
				}
			}
		}
	}
	JOINT Hips_virtual
	{
		OFFSET 0.000000 0.000000 0.000000
		CHANNELS 3 Xrotation Yrotation Zrotation
		JOINT Hips
		{
			OFFSET -0.000000 -0.000000 -0.000000
			CHANNELS 3 Xrotation Yrotation Zrotation
			JOINT Spine
			{
				OFFSET 0.000000 10.199997 -0.299500
				CHANNELS 3 Xrotation Yrotation Zrotation
				JOINT Spine1
				{
					OFFSET 0.000000 11.900002 -1.516600
					CHANNELS 3 Xrotation Yrotation Zrotation
					JOINT Spine2
					{
						OFFSET 0.000000 13.600006 -2.842500
						CHANNELS 3 Xrotation Yrotation Zrotation
						JOINT Neck_virtual
						{
							OFFSET 0.000000 0.000000 0.000000
							CHANNELS 3 Xrotation Yrotation Zrotation
							JOINT Neck
							{
								OFFSET 0.000000 9.624100 -2.890100
								CHANNELS 3 Xrotation Yrotation Zrotation
								JOINT Head
								{
									OFFSET 0.000000 14.068802 -1.351900
									CHANNELS 3 Xrotation Yrotation Zrotation
									End Site
									{
										OFFSET 0 0 0
									}
								}
							}
						}
						JOINT LeftShoulder_virtual
						{
							OFFSET 0.000000 0.000000 0.000000
							CHANNELS 3 Xrotation Yrotation Zrotation
							JOINT LeftShoulder
							{
								OFFSET 15.263000 10.923401 -0.547700
								CHANNELS 3 Xrotation Yrotation Zrotation
								JOINT LeftArm
								{
									OFFSET 25.438599 -2.830597 -13.032500
									CHANNELS 3 Xrotation Yrotation Zrotation
									JOINT LeftForeArm
									{
										OFFSET 29.960503 0.000000 0.000000
										CHANNELS 3 Xrotation Yrotation Zrotation
										JOINT LeftHand
										{
											OFFSET 27.849251 0.000000 0.000000
											CHANNELS 3 Xrotation Yrotation Zrotation
											End Site
											{
												OFFSET 0 0 0
											}
										}
									}
								}
							}
						}
						JOINT RightShoulder_virtual
						{
							OFFSET 0.000000 0.000000 0.000000
							CHANNELS 3 Xrotation Yrotation Zrotation
							JOINT RightShoulder
							{
								OFFSET -15.263000 10.923401 -0.547700
								CHANNELS 3 Xrotation Yrotation Zrotation
								JOINT RightArm
								{
									OFFSET -25.438599 -2.830597 -13.032500
									CHANNELS 3 Xrotation Yrotation Zrotation
									JOINT RightForeArm
									{
										OFFSET -29.960503 0.000000 0.000000
										CHANNELS 3 Xrotation Yrotation Zrotation
										JOINT RightHand
										{
											OFFSET -27.849251 0.000000 0.000000
											CHANNELS 3 Xrotation Yrotation Zrotation
											End Site
											{
												OFFSET 0 0 0
											}
										}
									}
								}
							}
						}
					}
				}
			}
		}
	}
}
MOTION
Frames: 4
Frame Time: 0.03333333
-2.783951 87.822502 2.837309 0.000000 0.000000 0.000000 -6.078100 -42.937940 -3.789456 -34.392922 2.849983 16.371236 38.632752 -14.745562 -0.131485 -1.804801 0.989422 -11.110821 0.000000 0.000000 0.000000 -6.078100 -42.937940 -3.789456 1.083492 -13.658541 -18.458158 33.744761 -7.728715 -0.245042 -25.562960 -6.500521 21.389700 0.000000 0.000000 0.000000 -6.078100 -42.937940 -3.789456 0.000000 0.000002 0.000000 5.850705 4.525945 -1.454931 11.836539 9.037612 -3.083970 0.000000 0.000000 0.000000 11.836542 9.037612 -3.083970 -0.860915 -0.253287 0.048899 0.000000 0.000000 0.000000 11.836542 9.037612 -3.083970 1.392464 -0.696061 -7.877847 -14.260090 2.394338 -63.277106 9.865074 -47.524921 5.927949 0.000000 0.000000 0.000000 11.836542 9.037612 -3.083970 1.410922 9.461496 9.792744 1.220057 -24.270702 60.532920 -6.660705 41.858411 8.043836 0.000000 0.000000 0.000000 
-2.796172 87.794228 2.851898 0.000000 0.000000 0.000000 -5.895713 -42.920297 -3.633737 -34.536807 2.796551 16.311475 38.681608 -14.678196 -0.120003 -1.825722 0.990681 -11.143233 0.000000 0.000000 0.000000 -5.895713 -42.920297 -3.633737 0.852796 -13.600603 -18.414089 34.043159 -8.086782 -0.292374 -25.642299 -6.527938 21.404870 0.000000 0.000000 0.000000 -5.895713 -42.920297 -3.633737 0.000000 -0.000002 0.000000 5.800820 4.441811 -1.473257 11.734901 8.869616 -3.113898 0.000000 0.000000 0.000000 11.734906 8.869608 -3.113897 -0.833324 -0.185567 0.034667 0.000000 0.000000 0.000000 11.734906 8.869608 -3.113897 1.386626 -0.844141 -7.964509 -14.201896 2.560081 -62.985368 9.704264 -47.394467 5.847724 0.000000 0.000000 0.000000 11.734906 8.869608 -3.113897 1.382082 9.291157 9.911532 1.351746 -24.130088 60.409827 -6.095246 41.947194 7.777816 0.000000 0.000000 0.000000 
-2.798892 87.765808 2.872938 0.000000 0.000000 0.000000 -5.658449 -42.846173 -3.433406 -34.734343 2.735376 16.212854 38.711723 -14.620220 -0.106455 -1.816712 0.987785 -11.166094 0.000000 0.000000 0.000000 -5.658449 -42.846173 -3.433406 0.619486 -13.539582 -18.341454 34.331379 -8.534941 -0.351201 -25.714861 -6.561634 21.433600 0.000000 0.000000 0.000000 -5.658449 -42.846173 -3.433406 0.000000 -0.000001 0.000000 5.749148 4.355221 -1.493204 11.629819 8.696609 -3.147943 0.000000 0.000000 0.000000 11.629813 8.696622 -3.147945 -0.838033 -0.114998 0.012067 0.000000 0.000000 0.000000 11.629813 8.696622 -3.147945 1.380122 -0.996760 -8.053121 -14.173302 2.709393 -62.680919 9.587344 -47.246693 5.801147 0.000000 0.000000 0.000000 11.629813 8.696622 -3.147945 1.353087 9.120823 10.030856 1.496273 -24.000624 60.284944 -5.499473 42.033121 7.478102 0.000000 0.000000 0.000000 
-2.792771 87.736732 2.900318 0.000000 0.000000 0.000000 -5.369855 -42.718435 -3.200476 -34.984912 2.654590 16.090242 38.713055 -14.612315 -0.092480 -1.766106 0.983439 -11.193567 0.000000 0.000000 0.000000 -5.369855 -42.718435 -3.200476 0.390399 -13.476464 -18.230994 34.597640 -9.071271 -0.420615 -25.772991 -6.600059 21.477608 0.000000 0.000000 0.000000 -5.369855 -42.718435 -3.200476 0.000000 0.000001 0.000000 5.696674 4.267149 -1.511186 11.522930 8.520902 -3.178271 0.000000 0.000000 0.000000 11.522932 8.520908 -3.178272 -0.874574 -0.038141 -0.018699 0.000000 0.000000 0.000000 11.522932 8.520908 -3.178272 1.373127 -1.153257 -8.144306 -14.167245 2.845064 -62.375781 9.516530 -47.090370 5.789326 0.000000 0.000000 0.000000 11.522932 8.520908 -3.178272 1.325406 8.962433 10.136578 1.656986 -23.878765 60.165005 -4.869294 42.117726 7.144450 0.000000 0.000000 0.000000 
